<svg width="15" height="20" viewBox="0 0 15 20" fill="none" xmlns="http://www.w3.org/2000/svg">
<path fill-rule="evenodd" clip-rule="evenodd" d="M2.38095 0.952381C1.59197 0.952381 0.952381 1.59197 0.952381 2.38095V17.619C0.952381 18.408 1.59197 19.0476 2.38095 19.0476H11.9048C12.6937 19.0476 13.3333 18.408 13.3333 17.619V2.38095C13.3333 1.59197 12.6937 0.952381 11.9048 0.952381H2.38095ZM0 2.38095C0 1.06599 1.06599 0 2.38095 0H11.9048C13.2197 0 14.2857 1.06599 14.2857 2.38095V17.619C14.2857 18.934 13.2197 20 11.9048 20H2.38095C1.06599 20 0 18.934 0 17.619V2.38095Z" fill="#191919"/>
<path fill-rule="evenodd" clip-rule="evenodd" d="M6.66797 17.7916C6.66797 17.5286 6.88117 17.3154 7.14416 17.3154H7.15347C7.41647 17.3154 7.62966 17.5286 7.62966 17.7916C7.62966 18.0546 7.41647 18.2678 7.15347 18.2678H7.14416C6.88117 18.2678 6.66797 18.0546 6.66797 17.7916Z" fill="#191919"/>
<path fill-rule="evenodd" clip-rule="evenodd" d="M13.4636 16.4934H0.476562V15.541H13.4636V16.4934Z" fill="#191919"/>
</svg>
