<svg width="526" height="176" viewBox="0 0 526 176" fill="none" xmlns="http://www.w3.org/2000/svg">
<path d="M7.56 167H5.4L59.22 41L61.2 40.1L106.56 167H91.26L77.22 127.4H24.66L7.56 167ZM53.64 60.44L25.38 125.6H76.68L53.64 60.44ZM116.515 78.44V77H120.295V59H132.895V77H160.435V78.44H132.895V143.96C132.895 151.76 133.735 157.4 135.415 160.88C137.215 164.36 140.875 166.1 146.395 166.1C152.035 166.1 157.735 164.96 163.495 162.68L164.035 164.12C158.035 166.4 151.135 167.54 143.335 167.54C135.655 167.54 129.895 165.98 126.055 162.86C122.215 159.62 120.295 153.26 120.295 143.78V78.44H116.515ZM184.323 123.08C184.323 137.96 186.903 148.88 192.063 155.84C197.343 162.8 204.243 166.28 212.763 166.28C224.763 166.28 235.443 164.48 244.803 160.88L245.343 162.14C235.743 165.86 224.883 167.72 212.763 167.72C200.763 167.72 190.983 164.12 183.423 156.92C175.863 149.72 172.083 138.62 172.083 123.62C172.083 108.62 176.043 96.98 183.963 88.7C191.883 80.42 201.963 76.28 214.203 76.28C224.043 76.28 232.323 79.22 239.043 85.1C245.763 90.98 249.123 99.68 249.123 111.2C249.123 111.8 249.123 112.4 249.123 113H184.863C184.503 116.24 184.323 119.6 184.323 123.08ZM236.883 111.56C236.763 100.04 234.543 91.52 230.223 86C225.903 80.48 220.323 77.72 213.483 77.72C206.643 77.72 200.523 80.72 195.123 86.72C189.843 92.72 186.483 101 185.043 111.56H236.883ZM284.767 167C274.207 167 267.547 164.24 264.787 158.72C264.187 157.52 263.887 156.44 263.887 155.48V32.18H276.487V154.22C276.487 157.7 277.147 160.4 278.467 162.32C279.907 164.12 281.347 165.08 282.787 165.2L284.767 165.56H290.347V167H284.767ZM318.763 167C313.843 167 310.063 165.92 307.423 163.76C304.903 161.6 303.583 159.44 303.463 157.28L303.283 154.22V77H315.883V154.22C315.883 157.7 316.543 160.4 317.863 162.32C319.303 164.12 320.683 165.08 322.003 165.2L324.163 165.56H329.743V167H318.763ZM304.363 56.84C302.923 55.4 302.203 53.6 302.203 51.44C302.203 49.28 302.923 47.48 304.363 46.04C305.803 44.48 307.603 43.7 309.763 43.7C311.923 43.7 313.723 44.48 315.163 46.04C316.723 47.48 317.503 49.28 317.503 51.44C317.503 53.6 316.723 55.4 315.163 56.84C313.723 58.28 311.923 59 309.763 59C307.603 59 305.803 58.28 304.363 56.84ZM347.448 123.08C347.448 137.96 350.028 148.88 355.188 155.84C360.468 162.8 367.368 166.28 375.888 166.28C387.888 166.28 398.568 164.48 407.928 160.88L408.468 162.14C398.868 165.86 388.008 167.72 375.888 167.72C363.888 167.72 354.108 164.12 346.548 156.92C338.988 149.72 335.208 138.62 335.208 123.62C335.208 108.62 339.168 96.98 347.088 88.7C355.008 80.42 365.088 76.28 377.328 76.28C387.168 76.28 395.448 79.22 402.168 85.1C408.888 90.98 412.248 99.68 412.248 111.2C412.248 111.8 412.248 112.4 412.248 113H347.988C347.628 116.24 347.448 119.6 347.448 123.08ZM400.008 111.56C399.888 100.04 397.668 91.52 393.348 86C389.028 80.48 383.448 77.72 376.608 77.72C369.768 77.72 363.648 80.72 358.248 86.72C352.968 92.72 349.608 101 348.168 111.56H400.008ZM453.963 84.74V80.96C448.563 83.12 443.643 87.5 439.203 94.1C434.763 100.58 432.423 106.7 432.183 112.46V167H419.583V77H432.183V105.62C434.103 98.66 437.763 92.12 443.163 86C448.563 79.76 454.683 76.52 461.523 76.28H462.243C464.643 76.28 466.623 77.12 468.183 78.8C469.863 80.36 470.703 82.34 470.703 84.74C470.703 87.14 469.863 89.12 468.183 90.68C466.623 92.24 464.643 93.02 462.243 93.02C459.843 93.02 457.863 92.24 456.303 90.68C454.743 89.12 453.963 87.14 453.963 84.74Z" fill="#191919"/>
<path d="M361.507 34.988H358.64V64.512H362.3V65H350.1V64.512H353.76V34.988H350.893V34.5H361.507V34.988ZM362.872 49.75C362.872 45.48 364.478 41.8403 367.691 38.831C370.944 35.781 374.97 34.256 379.769 34.256C384.568 34.256 388.472 35.5167 391.481 38.038C394.531 40.5187 396.056 44.4227 396.056 49.75C396.056 54.02 394.429 57.68 391.176 60.73C387.963 63.7393 383.958 65.244 379.159 65.244C374.36 65.244 370.436 64.0037 367.386 61.523C364.377 59.0017 362.872 55.0773 362.872 49.75ZM367.752 49.75C367.752 54.874 368.83 58.656 370.985 61.096C373.14 63.536 375.906 64.756 379.281 64.756C382.656 64.756 385.483 63.292 387.76 60.364C390.037 57.436 391.176 53.898 391.176 49.75C391.176 44.626 390.098 40.844 387.943 38.404C385.788 35.964 383.022 34.744 379.647 34.744C376.272 34.744 373.445 36.208 371.168 39.136C368.891 42.064 367.752 45.602 367.752 49.75ZM399.867 65H399.257L414.568 19.311H415.178L399.867 65ZM434.528 34.988H431.661V64.512H435.321V65H423.121V64.512H426.781V34.988H423.914V34.5H434.528V34.988ZM435.893 49.75C435.893 45.48 437.499 41.8403 440.712 38.831C443.965 35.781 447.991 34.256 452.79 34.256C457.589 34.256 461.493 35.5167 464.502 38.038C467.552 40.5187 469.077 44.4227 469.077 49.75C469.077 54.02 467.45 57.68 464.197 60.73C460.984 63.7393 456.979 65.244 452.18 65.244C447.381 65.244 443.457 64.0037 440.407 61.523C437.398 59.0017 435.893 55.0773 435.893 49.75ZM440.773 49.75C440.773 54.874 441.851 58.656 444.006 61.096C446.161 63.536 448.927 64.756 452.302 64.756C455.677 64.756 458.504 63.292 460.781 60.364C463.058 57.436 464.197 53.898 464.197 49.75C464.197 44.626 463.119 40.844 460.964 38.404C458.809 35.964 456.043 34.744 452.668 34.744C449.293 34.744 446.466 36.208 444.189 39.136C441.912 42.064 440.773 45.602 440.773 49.75Z" fill="#191919"/>
</svg>
