<svg width="109" height="17" viewBox="0 0 109 17" fill="none" xmlns="http://www.w3.org/2000/svg">
<path d="M99.8636 0L101.755 5.81961H107.874L102.923 9.41633L104.814 15.2359L99.8636 11.6392L94.9132 15.2359L96.8041 9.41633L91.8536 5.81961H97.9727L99.8636 0Z" fill="#191919"/>
<path d="M77.003 0L78.8939 5.81961H85.013L80.0626 9.41633L81.9535 15.2359L77.003 11.6392L72.0526 15.2359L73.9435 9.41633L68.993 5.81961H75.1121L77.003 0Z" fill="#191919"/>
<path d="M54.1429 0L56.0338 5.81961H62.1529L57.2025 9.41633L59.0934 15.2359L54.1429 11.6392L49.1925 15.2359L51.0834 9.41633L46.1329 5.81961H52.252L54.1429 0Z" fill="#191919"/>
<path d="M31.2823 0L33.1732 5.81961H39.2923L34.3419 9.41633L36.2328 15.2359L31.2823 11.6392L26.3319 15.2359L28.2228 9.41633L23.2723 5.81961H29.3914L31.2823 0Z" fill="#191919"/>
<path d="M8.42222 0L10.3131 5.81961H16.4322L11.4818 9.41633L13.3727 15.2359L8.42222 11.6392L3.47176 15.2359L5.36267 9.41633L0.412213 5.81961H6.53132L8.42222 0Z" fill="#191919"/>
</svg>
