<svg width="56" height="56" viewBox="0 0 56 56" fill="none" xmlns="http://www.w3.org/2000/svg">
<path d="M32.6667 21V11.6667C32.6667 9.81014 31.9293 8.02966 30.6165 6.71691C29.3037 5.40415 27.5233 4.66666 25.6667 4.66666L16.3334 25.6667V51.3333H42.6534C43.7788 51.346 44.871 50.9516 45.7285 50.2227C46.5861 49.4937 47.1513 48.4794 47.3201 47.3667L50.5401 26.3667C50.6416 25.6978 50.5965 25.0149 50.4079 24.3652C50.2193 23.7156 49.8917 23.1147 49.4478 22.6042C49.0038 22.0937 48.4543 21.6858 47.8371 21.4088C47.2199 21.1318 46.5499 20.9923 45.8734 21H32.6667ZM16.3334 51.3333H9.33341C8.09574 51.3333 6.90875 50.8417 6.03358 49.9665C5.15841 49.0913 4.66675 47.9043 4.66675 46.6667V30.3333C4.66675 29.0956 5.15841 27.9087 6.03358 27.0335C6.90875 26.1583 8.09574 25.6667 9.33341 25.6667H16.3334" fill="#EDE9E9"/>
<path d="M16.3334 51.3333H9.33341C8.09574 51.3333 6.90875 50.8417 6.03358 49.9665C5.15841 49.0913 4.66675 47.9043 4.66675 46.6667V30.3333C4.66675 29.0956 5.15841 27.9087 6.03358 27.0335C6.90875 26.1583 8.09574 25.6667 9.33341 25.6667H16.3334M32.6667 21V11.6667C32.6667 9.81014 31.9293 8.02966 30.6165 6.71691C29.3037 5.40415 27.5233 4.66666 25.6667 4.66666L16.3334 25.6667V51.3333H42.6534C43.7788 51.346 44.871 50.9516 45.7285 50.2227C46.5861 49.4937 47.1513 48.4794 47.3201 47.3667L50.5401 26.3667C50.6416 25.6978 50.5965 25.0149 50.4079 24.3652C50.2193 23.7156 49.8917 23.1147 49.4477 22.6042C49.0038 22.0937 48.4543 21.6858 47.8371 21.4088C47.2199 21.1318 46.5499 20.9923 45.8734 21H32.6667Z" stroke="black" stroke-linecap="round" stroke-linejoin="round"/>
</svg>
