<svg width="25" height="25" viewBox="0 0 25 25" fill="none" xmlns="http://www.w3.org/2000/svg">
<g clip-path="url(#clip0_837_1288)">
<path d="M11.8733 0.00412606C9.86707 0.0283448 5.55379 0.358032 3.14129 2.57131C1.34676 4.34944 0.720198 6.97835 0.64676 10.2291C0.585823 13.4682 0.512385 19.551 6.37567 21.2073V23.7299C6.37567 23.7299 6.33895 24.7393 7.00614 24.9463C7.82801 25.2065 8.29598 24.4299 9.07723 23.5955L10.5343 21.9479C14.546 22.2815 17.6186 21.5127 17.9725 21.3987C18.7866 21.1385 23.3718 20.5526 24.121 14.469C24.8897 8.18616 23.7468 4.22756 21.6835 2.43694H21.671C21.0483 1.8635 18.546 0.0400636 12.9554 0.0197511C12.9554 0.0197511 12.5405 -0.00837394 11.8733 0.00334481V0.00412606ZM11.9421 1.77053C12.5116 1.76663 12.8577 1.79084 12.8577 1.79084C17.5897 1.80334 19.8483 3.22756 20.3811 3.70725C22.1186 5.19631 23.0139 8.76506 22.3585 14.0104C21.7358 19.0963 18.0171 19.4182 17.3288 19.6377C17.0358 19.7315 14.3296 20.3987 10.9202 20.1791C10.9202 20.1791 8.38114 23.2432 7.58739 24.0322C7.4616 24.1705 7.31473 24.2112 7.22098 24.1908C7.0866 24.158 7.04598 23.9916 7.05379 23.7635L7.07801 19.5768C2.10535 18.2018 2.39832 13.0135 2.45145 10.3033C2.51239 7.59319 3.02098 5.376 4.53504 3.87444C6.57332 2.03147 10.2358 1.78303 11.9405 1.77053H11.9421ZM12.3171 4.47991C12.2761 4.47949 12.2355 4.48719 12.1976 4.50254C12.1597 4.51789 12.1251 4.5406 12.096 4.56936C12.0669 4.59812 12.0437 4.63236 12.0279 4.6701C12.0121 4.70785 12.0039 4.74835 12.0038 4.78928C12.0038 4.96428 12.146 5.10256 12.3171 5.10256C13.0917 5.08783 13.8615 5.2266 14.5823 5.51086C15.303 5.79513 15.9603 6.21927 16.5163 6.75881C17.6514 7.86116 18.2046 9.34241 18.2257 11.2791C18.2257 11.4502 18.3639 11.5924 18.5389 11.5924V11.5799C18.6214 11.5801 18.7006 11.5477 18.7593 11.4898C18.818 11.4318 18.8514 11.353 18.8522 11.2705C18.8902 10.3589 18.7423 9.44913 18.4177 8.59644C18.0931 7.74375 17.5985 6.96597 16.9639 6.31038C15.7272 5.10178 14.16 4.47913 12.3171 4.47913V4.47991ZM8.1991 5.19631C7.97797 5.164 7.75244 5.20839 7.56004 5.32209H7.54364C7.09697 5.58392 6.69458 5.91485 6.35145 6.30256C6.06629 6.63225 5.9116 6.96584 5.87098 7.28694C5.84676 7.47834 5.86317 7.66975 5.9202 7.85256L5.94051 7.86506C6.2616 8.80881 6.68114 9.71663 7.19364 10.5713C7.85381 11.7721 8.66625 12.8825 9.61082 13.8752L9.63895 13.9158L9.68348 13.9487L9.7116 13.9815L9.74442 14.0096C10.7407 14.9569 11.8539 15.7732 13.0569 16.4385C14.4319 17.1869 15.2663 17.5408 15.7671 17.6877V17.6955C15.9139 17.7401 16.0475 17.7604 16.1819 17.7604C16.6087 17.7291 17.0127 17.5558 17.3296 17.2682C17.7155 16.925 18.0428 16.5209 18.2983 16.0721V16.0643C18.5382 15.6127 18.4569 15.1854 18.1108 14.8963C17.4177 14.2905 16.6682 13.7523 15.8725 13.2893C15.3397 13.0002 14.7983 13.1752 14.5788 13.4682L14.1108 14.058C13.871 14.351 13.435 14.3104 13.435 14.3104L13.4225 14.3182C10.1718 13.4877 9.30457 10.1963 9.30457 10.1963C9.30457 10.1963 9.26395 9.74866 9.56473 9.52053L10.1507 9.04866C10.4311 8.82053 10.6264 8.27991 10.3257 7.74631C9.86582 6.94956 9.32887 6.19987 8.72254 5.50803C8.58999 5.34493 8.40402 5.23396 8.19754 5.19475L8.1991 5.19631ZM12.8577 6.12444C12.4429 6.12444 12.4429 6.751 12.8616 6.751C13.3774 6.75937 13.8866 6.86931 14.3599 7.07454C14.8333 7.27977 15.2615 7.57627 15.6202 7.94709C15.9474 8.30804 16.1988 8.73099 16.3596 9.19088C16.5204 9.65077 16.5872 10.1382 16.5561 10.6244C16.5576 10.7067 16.5912 10.7852 16.6497 10.843C16.7083 10.9008 16.7871 10.9334 16.8694 10.9338L16.8819 10.9502C16.9648 10.9496 17.0441 10.9164 17.1028 10.8578C17.1614 10.7992 17.1946 10.7198 17.1952 10.6369C17.2233 9.39553 16.8374 8.35413 16.0804 7.51975C15.3194 6.68538 14.2577 6.21741 12.9022 6.12444H12.8577V6.12444ZM13.371 7.80881C12.9436 7.79631 12.9272 8.43538 13.3507 8.44788C14.3804 8.501 14.8804 9.02131 14.946 10.0916C14.9474 10.1729 14.9806 10.2503 15.0384 10.3074C15.0962 10.3645 15.1741 10.3967 15.2554 10.3971H15.2679C15.3096 10.3953 15.3506 10.3852 15.3885 10.3674C15.4263 10.3496 15.4602 10.3244 15.4882 10.2934C15.5162 10.2623 15.5377 10.226 15.5515 10.1865C15.5654 10.1471 15.5712 10.1052 15.5686 10.0635C15.4952 8.66819 14.7343 7.88225 13.3835 7.80959H13.371V7.80881Z" fill="black"/>
</g>
<defs>
<clipPath id="clip0_837_1288">
<rect width="25" height="25" fill="white"/>
</clipPath>
</defs>
</svg>
