<svg width="25" height="24" viewBox="0 0 25 24" fill="none" xmlns="http://www.w3.org/2000/svg">
<path d="M23.1999 5.54982C19.5999 -0.000183463 12.2499 -1.65018 6.54991 1.79982C0.999913 5.24982 -0.800086 12.7498 2.79991 18.2998L3.09991 18.7498L1.89991 23.2498L6.39991 22.0498L6.84991 22.3498C8.79991 23.3998 10.8999 23.9998 12.9999 23.9998C15.2499 23.9998 17.4999 23.3998 19.4499 22.1998C24.9999 18.5998 26.6499 11.2498 23.1999 5.54982V5.54982ZM20.0499 17.0998C19.4499 17.9998 18.6999 18.5998 17.6499 18.7498C17.0499 18.7498 16.2999 19.0498 13.2999 17.8498C10.7499 16.6498 8.64991 14.6998 7.14991 12.4498C6.24991 11.3998 5.79991 10.0498 5.64991 8.69982C5.64991 7.49982 6.09991 6.44982 6.84991 5.69982C7.14991 5.39982 7.44991 5.24982 7.74991 5.24982H8.49991C8.79991 5.24982 9.09991 5.24982 9.24991 5.84982C9.54991 6.59982 10.2999 8.39982 10.2999 8.54982C10.4499 8.69982 10.4499 8.99982 10.2999 9.14982C10.4499 9.44982 10.2999 9.74982 10.1499 9.89982C9.99991 10.0498 9.84991 10.3498 9.69991 10.4998C9.39991 10.6498 9.24991 10.9498 9.39991 11.2498C9.99991 12.1498 10.7499 13.0498 11.4999 13.7998C12.3999 14.5498 13.2999 15.1498 14.3499 15.5998C14.6499 15.7498 14.9499 15.7498 15.0999 15.4498C15.2499 15.1498 15.9999 14.3998 16.2999 14.0998C16.5999 13.7998 16.7499 13.7998 17.0499 13.9498L19.4499 15.1498C19.7499 15.2998 20.0499 15.4498 20.1999 15.5998C20.3499 16.0498 20.3499 16.6498 20.0499 17.0998V17.0998Z" fill="#191919"/>
</svg>
